<?xml version="1.0" encoding="iso-8859-1"?>
<!-- Generator: Adobe Illustrator 19.0.0, SVG Export Plug-In . SVG Version: 6.00 Build 0)  -->
<svg version="1.1" id="Layer_1" xmlns="http://www.w3.org/2000/svg" xmlns:xlink="http://www.w3.org/1999/xlink" x="0px" y="0px"
	 viewBox="0 0 511.999 511.999" style="enable-background:new 0 0 511.999 511.999;" xml:space="preserve">
<g>
	<path style="fill:#F9EACD;" d="M298.667,167.713h202.664c0-71.623-48.592-132.446-114.439-151.133
		c-13.561-3.848-27.851-5.911-42.601-5.911h-45.625V167.713z"/>
	<path style="fill:#F99A98;" d="M501.333,167.713H298.667H96.001c0,86.371,70.668,157.04,157.04,157.04h91.252
		C430.666,324.751,501.333,254.083,501.333,167.713z"/>
	<g>
		<path style="fill:#7BA9D6;" d="M214.297,431.578c-7.823-9.515-19.686-15.577-32.964-15.577c-23.563,0-42.667,19.101-42.667,42.665
			c0,23.564,19.104,42.669,42.667,42.669c23.566,0,42.667-19.105,42.667-42.669C223.999,448.379,220.36,438.943,214.297,431.578z"/>
		<path style="fill:#7BA9D6;" d="M383.036,431.578c-6.063,7.365-9.705,16.801-9.705,27.087c0,23.564,19.104,42.669,42.667,42.669
			c23.566,0,42.667-19.105,42.667-42.669c0-23.564-19.101-42.665-42.667-42.665C402.723,416,390.86,422.063,383.036,431.578z"/>
	</g>
	<g>
		<path style="fill:#000003;" d="M416.001,405.329c-12.716,0-24.403,4.479-33.579,11.938l-66.955-55.022l32.703-26.874
			c43.178-0.984,83.733-18.368,114.574-49.207c31.762-31.762,49.255-73.831,49.255-118.452c0-44.625-17.492-86.693-49.255-118.456
			C430.982,17.494,388.916,0.002,344.292,0.002h-45.625C292.776,0.002,288,4.779,288,10.669v146.377H105.595
			c-4.955-24.316-26.505-42.669-52.261-42.669H10.667C4.777,114.377,0,119.152,0,125.044c0,5.889,4.777,10.667,10.667,10.667h42.667
			c17.645,0,32,14.355,32,32.002c0,44.621,17.492,86.688,49.255,118.452c30.841,30.839,71.398,48.223,114.573,49.207l32.702,26.874
			l-66.952,55.019c-9.175-7.456-20.862-11.936-33.578-11.936c-29.407,0-53.334,23.927-53.334,53.336
			c0,29.407,23.927,53.332,53.334,53.332c29.408,0,53.334-23.924,53.334-53.332c0-9.001-2.249-17.48-6.202-24.924l70.2-57.688
			l70.203,57.688c-3.952,7.444-6.203,15.926-6.203,24.924c0,29.407,23.927,53.332,53.334,53.332
			c29.408,0,53.334-23.924,53.334-53.332C469.335,429.255,445.41,405.329,416.001,405.329z M181.334,490.663
			c-17.645,0-32-14.353-32-31.997c0-17.647,14.355-32.002,32-32.002s32,14.355,32,32.002
			C213.334,476.31,198.979,490.663,181.334,490.663z M344.292,21.336c8.91,0,17.635,0.804,26.11,2.335l-25.819,44.223
			c-2.97,5.088-1.254,11.619,3.834,14.591c1.692,0.988,3.542,1.456,5.369,1.456c3.668,0,7.239-1.893,9.222-5.29l28.83-49.382
			c54.226,18.674,94.138,68.364,98.438,127.775h-149.76l66.878-36.465c5.174-2.821,7.08-9.301,4.259-14.471
			c-2.82-5.174-9.3-7.078-14.472-4.26l-87.847,47.896V21.336H344.292z M107.053,178.38h191.614h191.608
			c-5.482,75.737-68.843,135.688-145.951,135.705c-0.015,0-0.028,0-0.042,0H253.04C175.917,314.084,112.533,254.129,107.053,178.38z
			 M282.823,335.419h31.687l-15.844,13.019L282.823,335.419z M416.001,490.663c-17.645,0-32-14.353-32-31.997
			c0-17.647,14.355-32.002,32-32.002c17.645,0,32,14.355,32,32.002C448.001,476.31,433.646,490.663,416.001,490.663z"/>
		<path style="fill:#000003;" d="M429.472,107.072c1.732,0,3.49-0.422,5.116-1.314l0.657-0.361c5.167-2.831,7.061-9.315,4.23-14.48
			c-2.83-5.169-9.314-7.063-14.48-4.23l-0.658,0.361c-5.167,2.829-7.061,9.312-4.23,14.48
			C422.048,105.067,425.701,107.072,429.472,107.072z"/>
		<path style="fill:#000003;" d="M217.555,199.71H177.89c-5.891,0-10.667,4.776-10.667,10.667c0,5.89,4.776,10.667,10.667,10.667
			h39.665c5.89,0,10.667-4.777,10.667-10.667C228.222,204.485,223.446,199.71,217.555,199.71z"/>
		<path style="fill:#000003;" d="M147.247,199.714h-0.254c-5.891,0-10.667,4.776-10.667,10.667c0,5.889,4.776,10.667,10.667,10.667
			h0.254c5.891,0,10.667-4.778,10.667-10.667C157.914,204.489,153.139,199.714,147.247,199.714z"/>
		<path style="fill:#000003;" d="M181.334,448.001c-5.873,0-10.667,4.785-10.667,10.663c0,5.878,4.794,10.669,10.667,10.669
			c5.875,0,10.665-4.792,10.665-10.669C191.999,452.787,187.21,448.001,181.334,448.001z"/>
		<path style="fill:#000003;" d="M416.001,448.001c-5.873,0-10.665,4.785-10.665,10.663c0,5.878,4.792,10.669,10.665,10.669
			c5.875,0,10.667-4.792,10.667-10.669C426.669,452.787,421.876,448.001,416.001,448.001z"/>
	</g>
</g>
<g>
</g>
<g>
</g>
<g>
</g>
<g>
</g>
<g>
</g>
<g>
</g>
<g>
</g>
<g>
</g>
<g>
</g>
<g>
</g>
<g>
</g>
<g>
</g>
<g>
</g>
<g>
</g>
<g>
</g>
</svg>
