<?xml version="1.0" standalone="no"?>
        <!DOCTYPE svg PUBLIC "-//W3C//DTD SVG 1.1//EN" 
        "http://www.w3.org/Graphics/SVG/1.1/DTD/svg11.dtd"> <svg style="color: rgb(228, 155, 151);" xmlns="http://www.w3.org/2000/svg" width="40" height="40" fill="currentColor" class="bi bi-bag" viewBox="0 0 16 16"> <path d="M8 1a2.5 2.5 0 0 1 2.5 2.5V4h-5v-.5A2.5 2.5 0 0 1 8 1zm3.5 3v-.5a3.5 3.5 0 1 0-7 0V4H1v10a2 2 0 0 0 2 2h10a2 2 0 0 0 2-2V4h-3.5zM2 5h12v9a1 1 0 0 1-1 1H3a1 1 0 0 1-1-1V5z" fill="#e49b97"></path> </svg> 